Input #0, mov,mp4,m4a,3gp,3g2,mj2, from '/home/hbattu/projects/huberman-gpt/huberman-audio/mp3/tmpxt0r4xa_.mp4':
  Metadata:
    major_brand     : dash
    minor_version   : 0
    compatible_brands: iso6mp41
    creation_time   : 2021-11-30T07:54:37.000000Z
  Duration: 02:13:01.98, start: 0.000000, bitrate: 129 kb/s
    Stream #0:0(eng): Audio: aac (LC) (mp4a / 0x6134706D), 44100 Hz, stereo, fltp, 0 kb/s (default)
    Metadata:
      creation_time   : 2021-11-30T07:54:37.000000Z
      handler_name    : ISO Media file produced by Google Inc.
Stream mapping:
  Stream #0:0 -> #0:0 (aac (native) -> mp3 (libmp3lame))
Press [q] to stop, [?] for help
[graph_0_in_0_0 @ 0x5583dba22180] tb:1/44100 samplefmt:fltp samplerate:44100 chlayout:0x3
Output #0, mp3, to '../huberman-audio/mp3/HXzTbCEqCJc.mp3':
  Metadata:
    major_brand     : dash
    minor_version   : 0
    compatible_brands: iso6mp41
    TSSE            : Lavf58.29.100
    Stream #0:0(eng): Audio: mp3 (libmp3lame), 44100 Hz, stereo, fltp, delay 1105 (default)
    Metadata:
      creation_time   : 2021-11-30T07:54:37.000000Z
      handler_name    : ISO Media file produced by Google Inc.
      encoder         : Lavc58.54.100 libmp3lame
No more output streams to write to, finishing.
size=  124719kB time=02:13:01.97 bitrate= 128.0kbits/s speed=92.9x    
[AVIOContext @ 0x5583db910900] Statistics: 0 seeks, 172 writeouts
video:0kB audio:124719kB subtitle:0kB other streams:0kB global headers:0kB muxing overhead: 0.000271%
Input file #0 (/home/hbattu/projects/huberman-gpt/huberman-audio/mp3/tmpxt0r4xa_.mp4):
  Input stream #0:0 (audio): 343755 packets read (127711608 bytes); 343755 frames decoded (352005120 samples); 
  Total: 343755 packets (127711608 bytes) demuxed
Output file #0 (../huberman-audio/mp3/HXzTbCEqCJc.mp3):
  Output stream #0:0 (audio): 305560 frames encoded (352005120 samples); 305561 packets muxed (127712026 bytes); 
  Total: 305561 packets (127712026 bytes) muxed
[AVIOContext @ 0x5583db9385c0] Statistics: 2 seeks, 489 writeouts
[AVIOContext @ 0x5583db919880] Statistics: 129180092 bytes read, 0 seeks
